<?xml version="1.0" encoding="UTF-8" standalone="no"?>
<!-- Created with Inkscape (http://www.inkscape.org/) -->
<svg
   xmlns:dc="http://purl.org/dc/elements/1.1/"
   xmlns:cc="http://creativecommons.org/ns#"
   xmlns:rdf="http://www.w3.org/1999/02/22-rdf-syntax-ns#"
   xmlns:svg="http://www.w3.org/2000/svg"
   xmlns="http://www.w3.org/2000/svg"
   xmlns:sodipodi="http://sodipodi.sourceforge.net/DTD/sodipodi-0.dtd"
   xmlns:inkscape="http://www.inkscape.org/namespaces/inkscape"
   width="418"
   height="497"
   id="svg2"
   sodipodi:version="0.32"
   inkscape:version="0.46"
   sodipodi:docname="Wappen_WOB.svg"
   inkscape:output_extension="org.inkscape.output.svg.inkscape"
   version="1.0">
  <defs
     id="defs4">
    <linearGradient
       id="linearGradient3345">
      <stop
         style="stop-color:#ff0000;stop-opacity:1;"
         offset="0"
         id="stop3347" />
      <stop
         id="stop3355"
         offset="0.94168675"
         style="stop-color:#006624;stop-opacity:1;" />
      <stop
         style="stop-color:#ffffff;stop-opacity:1;"
         offset="1"
         id="stop3349" />
    </linearGradient>
    <inkscape:perspective
       sodipodi:type="inkscape:persp3d"
       inkscape:vp_x="0 : 526.18109 : 1"
       inkscape:vp_y="0 : 1000 : 0"
       inkscape:vp_z="744.09448 : 526.18109 : 1"
       inkscape:persp3d-origin="372.04724 : 350.78739 : 1"
       id="perspective10" />
    <inkscape:perspective
       id="perspective2464"
       inkscape:persp3d-origin="372.04724 : 350.78739 : 1"
       inkscape:vp_z="744.09448 : 526.18109 : 1"
       inkscape:vp_y="0 : 1000 : 0"
       inkscape:vp_x="0 : 526.18109 : 1"
       sodipodi:type="inkscape:persp3d" />
  </defs>
  <sodipodi:namedview
     id="base"
     pagecolor="#ffffff"
     bordercolor="#666666"
     borderopacity="1.0"
     inkscape:pageopacity="0.0"
     inkscape:pageshadow="2"
     inkscape:zoom="0.5"
     inkscape:cx="348.70447"
     inkscape:cy="484.74698"
     inkscape:document-units="px"
     inkscape:current-layer="layer2"
     showgrid="false"
     showguides="true"
     inkscape:guide-bbox="true"
     inkscape:window-width="1280"
     inkscape:window-height="750"
     inkscape:window-x="-8"
     inkscape:window-y="-8"
     inkscape:showpageshadow="false" />
  <metadata
     id="metadata7">
    <rdf:RDF>
      <cc:Work
         rdf:about="">
        <dc:format>image/svg+xml</dc:format>
        <dc:type
           rdf:resource="http://purl.org/dc/dcmitype/StillImage" />
      </cc:Work>
    </rdf:RDF>
  </metadata>
  <g
     inkscape:groupmode="layer"
     id="layer2"
     inkscape:label="Wappen">
    <path
       style="opacity:1;fill:#ff0000;fill-opacity:1;stroke:none;stroke-width:8.19999981;stroke-linecap:butt;stroke-linejoin:miter;stroke-miterlimit:4;stroke-dasharray:none;stroke-dashoffset:0;stroke-opacity:1"
       d="M 9.48227,7.73762 L 409.50268,9.75793 L 409.85982,289.80442 C 413.91013,388.28412 335.39603,484.2537 217.5737,486.54993 C 62.78453,486.40059 4.49628,382.01207 9.27077,290.55823 L 9.48227,7.73762 z"
       id="path2471"
       sodipodi:nodetypes="cccccc" />
    <path
       style="opacity:1;fill:#ffffff;fill-opacity:1;stroke:#000000;stroke-width:8.19999981;stroke-linecap:butt;stroke-linejoin:miter;stroke-miterlimit:4;stroke-dasharray:none;stroke-dashoffset:0;stroke-opacity:1"
       d="M 30.29018,92.91911 L 30.29018,39.55192 L 49.49107,39.55192 L 49.58217,65.72993 L 67.0934,65.7254 L 66.99776,39.35613 L 84.78683,39.55193 L 84.88246,65.72086 L 102.85826,65.81197 L 102.85826,39.26956 L 120.92968,39.55193 L 120.83406,93.39273 L 111.04687,93.48385 L 111.32923,236.36107 L 41.49371,236.22418 L 41.30246,92.91911 L 30.29018,92.91911 z"
       id="path3257"
       sodipodi:nodetypes="ccccccccccccccccc" />
    <path
       style="opacity:1;fill:none;fill-opacity:1;stroke:#000000;stroke-width:8.19999981;stroke-linecap:butt;stroke-linejoin:miter;stroke-miterlimit:4;stroke-dasharray:none;stroke-dashoffset:0;stroke-opacity:1"
       d="M 42.07586,92.91863 L 113.89582,93.49243"
       id="path3261"
       sodipodi:nodetypes="cc" />
    <path
       style="opacity:1;fill:#ffffff;fill-opacity:1;stroke:#000000;stroke-width:8.19999981;stroke-linecap:butt;stroke-linejoin:miter;stroke-miterlimit:4;stroke-dasharray:none;stroke-dashoffset:0;stroke-opacity:1"
       d="M 73.60356,158.62524 L 73.80322,131.47107"
       id="path3265"
       sodipodi:nodetypes="cc" />
    <path
       style="opacity:1;fill:#ffffff;fill-opacity:1;stroke:#000000;stroke-width:8.19999981;stroke-linecap:butt;stroke-linejoin:miter;stroke-miterlimit:4;stroke-dasharray:none;stroke-dashoffset:0;stroke-opacity:1"
       d="M 297.74417,92.67996 L 297.74417,39.31277 L 316.94506,39.31277 L 317.03616,65.49078 L 334.54739,65.48625 L 334.45175,39.11698 L 352.24082,39.31278 L 352.33645,65.48171 L 370.31225,65.57282 L 370.31225,39.03041 L 388.38367,39.31278 L 388.28805,93.15358 L 378.50086,93.2447 L 378.78322,236.12192 L 308.9477,235.98503 L 308.75645,92.67996 L 297.74417,92.67996 z"
       id="path3269"
       sodipodi:nodetypes="ccccccccccccccccc" />
    <path
       style="opacity:1;fill:none;fill-opacity:1;stroke:#000000;stroke-width:8.19999981;stroke-linecap:butt;stroke-linejoin:miter;stroke-miterlimit:4;stroke-dasharray:none;stroke-dashoffset:0;stroke-opacity:1"
       d="M 309.52985,92.67948 L 381.34981,93.25328"
       id="path3271"
       sodipodi:nodetypes="cc" />
    <path
       style="opacity:1;fill:#ffffff;fill-opacity:1;stroke:#000000;stroke-width:8.19999981;stroke-linecap:butt;stroke-linejoin:miter;stroke-miterlimit:4;stroke-dasharray:none;stroke-dashoffset:0;stroke-opacity:1"
       d="M 341.05755,158.38609 L 341.25721,131.23192"
       id="path3273"
       sodipodi:nodetypes="cc" />
    <path
       style="opacity:1;fill:#e6cc2b;fill-opacity:1;stroke:#000000;stroke-width:8.19999981;stroke-linecap:butt;stroke-linejoin:miter;stroke-miterlimit:4;stroke-dasharray:none;stroke-dashoffset:0;stroke-opacity:1"
       d="M 147.1759,110.515 C 147.1759,110.515 137.99518,170.3809 135.70001,172.67608 C 133.40483,174.97126 127.09309,173.82367 125.75423,175.35379 C 124.41538,176.8839 123.84158,180.13541 123.84158,182.23932 C 123.84158,184.34323 123.84158,184.34323 123.84158,184.34323 L 123.70718,188.53038 L 144.49819,188.3598 L 146.02831,174.2062 L 150.80993,174.2062 C 150.80993,174.2062 150.80993,158.52248 151.57499,154.12339 C 152.34005,149.72429 163.62467,122.75595 163.62467,122.75595 L 147.1759,110.515 z"
       id="path3277"
       sodipodi:nodetypes="cssscccccscc" />
    <path
       style="opacity:1;fill:#e6cc2b;fill-opacity:1;stroke:#000000;stroke-width:8.19999981;stroke-linecap:butt;stroke-linejoin:miter;stroke-miterlimit:4;stroke-dasharray:none;stroke-dashoffset:0;stroke-opacity:1"
       d="M 208.18938,116.44421 C 208.18938,116.44421 206.65927,127.53757 219.09148,140.73485 C 231.5237,153.93212 234.01014,155.07971 233.24508,155.65351 C 232.48002,156.2273 218.58489,171.69907 216.86351,171.69907 C 215.14212,171.69907 208.88724,172.11779 208.50471,173.45664 C 208.12218,174.7955 208.25659,187.45 208.25659,187.45 L 223.61463,187.45 L 223.8731,181.283 C 223.8731,181.283 254.09295,151.82821 253.51916,149.72429 C 252.94536,147.62038 232.28876,122.94722 230.37611,119.88698 C 228.46346,116.82674 225.59449,107.07223 225.59449,107.07223 L 208.18938,116.44421 z"
       id="path3279"
       sodipodi:nodetypes="csssscccsscc" />
    <rect
       style="opacity:1;fill:#e6cc2b;fill-opacity:1;stroke:#000000;stroke-width:4.69999981;stroke-linecap:butt;stroke-linejoin:miter;stroke-miterlimit:4;stroke-dasharray:none;stroke-dashoffset:0;stroke-opacity:1"
       id="rect3281"
       width="22.98428"
       height="15.439817"
       x="222.55499"
       y="105.08154"
       ry="4.7372189" />
    <path
       style="opacity:1;fill:#e6cc2b;fill-opacity:1;stroke:#000000;stroke-width:8.19999981;stroke-linecap:butt;stroke-linejoin:miter;stroke-miterlimit:4;stroke-dasharray:none;stroke-dashoffset:0;stroke-opacity:1"
       d="M 152.72488,65.25379 C 152.72488,65.25379 147.63675,97.0107 147.63675,99.81794 C 147.63675,102.62518 143.25044,125.96037 145.35587,128.59216 C 147.4613,131.22395 161.84841,131.0485 168.34015,131.22395 C 174.8319,131.3994 175.1828,131.3994 175.1828,131.3994 C 175.1828,131.3994 181.14819,156.48912 184.48179,164.20903 C 187.81539,171.92894 189.92082,174.73618 188.5172,175.08709 C 187.11358,175.43799 181.67455,175.7889 180.79728,178.77159 C 179.92002,181.75428 179.39366,187.71967 181.49909,188.24603 C 183.60453,188.77239 200.97433,188.94784 202.02704,187.36877 C 203.07976,185.78969 204.30793,179.99976 203.60612,177.19252 C 202.90431,174.38528 194.30713,159.47181 193.60532,155.61185 C 192.90351,151.7519 189.04355,124.55675 189.04355,124.55675 C 189.04355,124.55675 202.2025,122.80223 211.50148,118.94227 C 220.80047,115.08231 230.62581,107.71331 231.85398,108.76602 C 233.08214,109.81874 243.9602,124.20585 249.39923,129.82033 C 254.83826,135.43481 266.06722,143.50563 271.85716,144.55834 C 277.64709,145.61106 280.10343,145.61106 280.10343,145.61106 L 278.17345,174.73618 C 278.17345,174.73618 270.62899,174.03437 269.57628,177.19252 C 268.52356,180.35066 268.34811,187.36877 268.34811,187.36877 L 288.3497,187.71967 C 288.3497,187.71967 295.54325,139.99658 293.96418,138.24205 C 292.38511,136.48753 259.22457,104.73061 260.9791,102.44973 C 262.73363,100.16885 272.03261,84.90448 270.9799,73.50006 C 269.92718,62.09564 267.11994,49.81397 262.03182,44.90129 C 256.94369,39.98862 250.27649,36.30412 245.53928,36.30412 C 240.80206,36.30412 224.83587,36.12867 224.83587,36.12867 C 224.83587,36.12867 253.61009,85.25538 253.43464,87.71172 C 253.25919,90.16805 252.55738,93.50165 247.82016,93.50165 C 243.08294,93.50165 196.23711,92.62439 192.55261,90.51896 C 188.8681,88.41353 184.65724,86.659 183.77998,82.62359 C 182.90272,78.58818 182.02545,75.07913 182.02545,75.07913 C 182.02545,75.07913 200.44797,76.48275 202.72885,74.37732 C 205.00974,72.27189 205.18519,64.72743 205.18519,64.72743 C 205.18519,64.72743 182.02545,65.6047 180.97274,61.04293 C 179.92002,56.48116 180.09547,54.02483 182.2009,52.09485 C 184.30634,50.16487 192.90351,48.41035 196.23711,47.88399 C 199.57071,47.35763 205.18519,45.6031 205.36064,43.32222 C 205.53609,41.04134 205.18519,36.47957 205.18519,36.47957 L 174.65644,36.30412 L 168.51561,24.19789 L 162.72567,35.07595 L 155.88302,29.46147 C 155.88302,29.46147 156.40938,41.04134 156.40938,42.26951 C 156.40938,43.49768 153.07578,65.42924 152.72488,65.25379 z"
       id="path3283"
       sodipodi:nodetypes="cssscssssssscssssccsccssssscsssscscsssscccccsc" />
    <path
       style="opacity:1;fill:#000000;fill-opacity:1;stroke:none;stroke-width:5.19999981;stroke-linecap:butt;stroke-linejoin:miter;stroke-miterlimit:4;stroke-dasharray:none;stroke-dashoffset:0;stroke-opacity:1"
       d="M 166.91763,48.72143 L 173.55482,48.71012 L 177.12177,44.55964 L 166.70042,44.43558 L 166.91763,48.72143 z"
       id="path3307"
       sodipodi:nodetypes="ccccc" />
    <path
       style="opacity:1;fill:#000cff;fill-opacity:1;stroke:#000000;stroke-width:1.70000005;stroke-linecap:butt;stroke-linejoin:miter;stroke-miterlimit:4;stroke-dasharray:none;stroke-dashoffset:0;stroke-opacity:1"
       d="M 188.69265,51.9194 C 188.69265,51.9194 196.14938,53.32301 200.18479,53.23529 C 204.2202,53.14756 210.97512,52.2703 213.16828,50.86668 C 215.36144,49.46306 218.78276,47.09445 218.78276,47.09445 C 218.78276,47.09445 215.97958,54.38743 211.76466,56.83207 C 208.57036,58.68475 205.27291,60.51657 199.39526,60.42885 C 197.63873,60.40263 192.99123,60.34112 191.67534,60.34112 C 190.35944,60.34112 182.63954,60.07794 182.63954,60.07794 C 182.63954,60.07794 182.02545,57.35843 182.63954,55.77935 C 183.25362,54.20028 184.48179,52.53348 186.49949,52.00713 C 188.51719,51.48077 188.78038,51.9194 188.69265,51.9194 z"
       id="path3309"
       sodipodi:nodetypes="csscssscssc" />
    <path
       style="opacity:1;fill:#ffffff;fill-opacity:1;stroke:#000000;stroke-width:1.70000005;stroke-linecap:butt;stroke-linejoin:miter;stroke-miterlimit:4;stroke-dasharray:none;stroke-dashoffset:0;stroke-opacity:1"
       d="M 197.68138,60.55101 L 194.78397,54.92476 L 192.27481,60.4612 L 197.68138,60.55101 z"
       id="path3313"
       sodipodi:nodetypes="cccc" />
    <path
       style="opacity:1;fill:#ffffff;fill-opacity:1;stroke:#000000;stroke-width:1.70000005;stroke-linecap:butt;stroke-linejoin:miter;stroke-miterlimit:4;stroke-dasharray:none;stroke-dashoffset:0;stroke-opacity:1"
       d="M 192.60843,51.09119 L 196.28338,56.24332 L 197.97191,50.40406 L 192.60843,51.09119 z"
       id="path3315"
       sodipodi:nodetypes="cccc" />
    <path
       style="opacity:1;fill:#00a305;fill-opacity:1;stroke:none;stroke-width:8.19999981;stroke-linecap:butt;stroke-linejoin:miter;stroke-miterlimit:4;stroke-dasharray:none;stroke-dashoffset:0;stroke-opacity:1"
       d="M 25.69522,381.34255 C 28.70192,389.78176 48.95769,421.38415 51.85817,417.75854 C 51.85817,417.75854 63.23145,406.4097 79.7889,406.09128 C 98.17367,405.73772 103.01549,416.64407 122.56885,417.05143 C 139.18586,417.40499 144.84272,405.38417 163.22749,405.38418 C 182.62166,405.38418 187.96604,418.15478 207.77522,418.46565 C 225.00507,418.73604 228.28067,405.43115 252.32295,405.73773 C 273.95896,406.00912 277.69796,417.22662 296.87068,417.40499 C 317.17517,417.59388 316.31611,405.85905 339.29708,406.2126 C 355.91589,406.46827 365.46003,416.34432 365.46003,416.34432 C 365.46003,416.34432 382.43058,396.19178 388.08744,385.93874"
       id="path3339"
       sodipodi:nodetypes="csssssscscs" />
    <path
       style="opacity:1;fill:#ffffff;fill-opacity:1;stroke:none;stroke-width:8.19999981;stroke-linecap:butt;stroke-linejoin:miter;stroke-miterlimit:4;stroke-dasharray:none;stroke-dashoffset:0;stroke-opacity:1"
       d="M 51.6814,421.11524 C 51.6814,421.11524 63.05468,409.76644 79.61213,409.44804 C 97.9969,409.09444 102.83872,420.00084 122.39208,420.40814 C 139.00909,420.76174 144.66595,408.74094 163.05072,408.74094 C 182.44489,408.74094 187.78927,421.51154 207.59845,421.82234 C 224.8283,422.09274 228.1039,408.78784 252.14618,409.09444 C 273.78219,409.36584 277.52119,420.58334 296.69391,420.76174 C 316.9984,420.95064 316.13934,409.21574 339.12031,409.56934 C 355.73912,409.82504 365.28326,419.70104 365.28326,419.70104 L 365.10647,419.52631 C 326.31541,462.80692 273.36887,486.50321 210.9572,487.40856 C 110.44477,480.70705 81.4032,450.80072 51.6814,421.11524 z"
       id="path3363"
       sodipodi:nodetypes="cssssscscccc" />
    <path
       style="opacity:1;fill:none;fill-opacity:1;stroke:#000000;stroke-width:8.19999981;stroke-linecap:butt;stroke-linejoin:miter;stroke-miterlimit:4;stroke-dasharray:none;stroke-dashoffset:0;stroke-opacity:1"
       d="M 63.85569,437.94131 C 63.85569,437.94131 62.41526,433.45641 78.97271,433.13801 C 97.35748,432.78441 102.1993,443.69081 121.75266,444.09811 C 138.36967,444.45171 144.02653,432.43091 162.4113,432.43091 C 181.80547,432.43091 187.14985,445.20151 206.95904,445.51231 C 224.18889,445.78271 227.46449,432.47781 251.50677,432.78441 C 273.14278,433.05581 276.88178,444.27331 296.0545,444.45171 C 316.35899,444.64061 315.49993,432.90571 338.4809,433.25931 C 338.4809,433.25931 342.90031,433.67031 345.37519,435.08451 C 347.85006,436.49881 347.85006,436.49881 347.85006,436.49881"
       id="path3365"
       sodipodi:nodetypes="cssssssssc" />
    <path
       style="opacity:1;fill:none;fill-opacity:1;stroke:#000000;stroke-width:8.19999981;stroke-linecap:butt;stroke-linejoin:miter;stroke-miterlimit:4;stroke-dasharray:none;stroke-dashoffset:0;stroke-opacity:1"
       d="M 91.50824,457.76541 C 99.32042,461.72864 103.4282,467.30676 125.28819,466.72551 C 141.90309,466.28372 147.56206,455.05831 165.94683,455.05831 C 185.341,455.05831 190.68538,467.82891 210.49457,468.13971 C 227.72442,468.41011 231.05166,453.80729 255.0423,455.41181 C 276.67831,456.85885 290.3168,475.14242 322.21745,459.30091"
       id="path3367"
       sodipodi:nodetypes="csssss" />
    <path
       style="opacity:1;fill:none;fill-opacity:1;stroke:#000000;stroke-width:8.19999981;stroke-linecap:butt;stroke-linejoin:miter;stroke-miterlimit:4;stroke-dasharray:none;stroke-dashoffset:0;stroke-opacity:1"
       d="M 52.03494,420.75981 C 52.03494,420.75981 63.40822,409.41101 79.96567,409.09261 C 98.35044,408.73901 103.19226,419.64541 122.74562,420.05271 C 139.36263,420.40631 145.01949,408.38551 163.40426,408.38551 C 182.79843,408.38551 188.14281,421.15611 207.952,421.46691 C 225.18185,421.73731 228.45745,408.43241 252.49973,408.73901 C 274.13574,409.01041 277.87474,420.22791 297.04746,420.40631 C 317.35195,420.59521 316.49289,408.86031 339.47386,409.21391 C 356.09267,409.46961 365.63681,419.34561 365.63681,419.34561"
       id="path3369"
       sodipodi:nodetypes="cssssscsc" />
    <path
       style="opacity:1;fill:none;fill-opacity:1;stroke:#000000;stroke-width:8.19999981;stroke-linecap:butt;stroke-linejoin:miter;stroke-miterlimit:4;stroke-dasharray:none;stroke-dashoffset:0;stroke-opacity:1"
       d="M 9.87334,10.76808 L 409.89375,12.78839 L 410.25089,292.83488 C 414.3012,391.31458 335.7871,487.28416 217.96477,489.58039 C 63.1756,489.43105 4.88735,385.04253 9.66184,293.58869 L 9.87334,10.76808 z"
       id="path3371"
       sodipodi:nodetypes="cccccc" />
    <path
       style="opacity:1;fill:#ffffff;fill-opacity:1;stroke:#000000;stroke-width:8.19999981;stroke-linecap:butt;stroke-linejoin:miter;stroke-miterlimit:4;stroke-dasharray:none;stroke-dashoffset:0;stroke-opacity:1"
       d="M 33.48448,383.80671 L 385.76869,383.40741 L 386.05105,189.70421 L 353.88139,189.82121 L 353.92983,216.64601 L 331.81255,216.83141 L 331.97795,189.84541 L 262.65707,189.70421 L 262.65708,216.67021 L 236.11466,216.52901 L 235.97348,189.56301 L 177.94725,189.70421 L 178.22962,216.24661 L 151.96957,216.52901 L 152.25194,189.70421 L 83.91935,189.42191 L 83.91935,216.52901 L 65.28319,216.52901 L 65.00083,189.42191 L 34.22293,189.13951 L 33.48448,383.80671 z"
       id="path3373"
       sodipodi:nodetypes="ccccccccccccccccccccc" />
    <path
       style="opacity:1;fill:none;fill-opacity:1;stroke:#000000;stroke-width:8.19999981;stroke-linecap:butt;stroke-linejoin:miter;stroke-miterlimit:4;stroke-dasharray:none;stroke-dashoffset:0;stroke-opacity:1"
       d="M 142.53252,382.41192 L 142.53252,309.93347 C 142.86126,264.82207 173.73148,243.09675 211.47543,243.81899 C 259.62242,243.46664 275.1343,282.10727 274.40794,315.59032 L 274.05438,382.41192 L 274.05438,382.41192"
       id="path3375"
       sodipodi:nodetypes="cccccc" />
    <path
       style="opacity:1;fill:none;fill-opacity:1;stroke:#000000;stroke-width:8.19999981;stroke-linecap:butt;stroke-linejoin:miter;stroke-miterlimit:4;stroke-dasharray:none;stroke-dashoffset:0;stroke-opacity:1"
       d="M 163.39217,380.29061 L 163.39217,310.28703 C 163.53323,281.09089 181.58673,265.40711 206.17213,266.09286 C 235.26831,265.37365 252.69898,278.58227 253.90184,309.22637 L 254.2554,380.64415"
       id="path3377"
       sodipodi:nodetypes="ccccc" />
    <path
       style="opacity:1;fill:none;fill-opacity:1;stroke:#000000;stroke-width:8.19999981;stroke-linecap:butt;stroke-linejoin:miter;stroke-miterlimit:4;stroke-dasharray:none;stroke-dashoffset:0;stroke-opacity:1"
       d="M 207.95766,266.79996 L 207.95766,381.70481"
       id="path3379"
       sodipodi:nodetypes="cc" />
    <rect
       style="opacity:1;fill:none;fill-opacity:1;stroke:#000000;stroke-width:8.19999981;stroke-linecap:butt;stroke-linejoin:miter;stroke-miterlimit:4;stroke-dasharray:none;stroke-dashoffset:0;stroke-opacity:1"
       id="rect3381"
       width="29.75"
       height="14.5"
       x="164.26831"
       y="303.60315"
       ry="0" />
    <rect
       style="opacity:1;fill:none;fill-opacity:1;stroke:#000000;stroke-width:8.19999981;stroke-linecap:butt;stroke-linejoin:miter;stroke-miterlimit:4;stroke-dasharray:none;stroke-dashoffset:0;stroke-opacity:1"
       id="rect3383"
       width="29.75"
       height="14.5"
       x="163.64331"
       y="340.85315"
       ry="0" />
    <rect
       style="opacity:1;fill:none;fill-opacity:1;stroke:#000000;stroke-width:8.19999981;stroke-linecap:butt;stroke-linejoin:miter;stroke-miterlimit:4;stroke-dasharray:none;stroke-dashoffset:0;stroke-opacity:1"
       id="rect3385"
       width="28.5"
       height="14.5"
       x="223.95581"
       y="303.47815"
       ry="0" />
    <rect
       style="opacity:1;fill:none;fill-opacity:1;stroke:#000000;stroke-width:8.19999981;stroke-linecap:butt;stroke-linejoin:miter;stroke-miterlimit:4;stroke-dasharray:none;stroke-dashoffset:0;stroke-opacity:1"
       id="rect3387"
       width="29.75"
       height="14.5"
       x="223.33081"
       y="340.72815"
       ry="0" />
  </g>
</svg>
